<?xml version="1.0" standalone="no"?>
<!DOCTYPE svg PUBLIC "-//W3C//DTD SVG 1.1//EN" "http://www.w3.org/Graphics/SVG/1.1/DTD/svg11.dtd" >
<svg xmlns="http://www.w3.org/2000/svg">
<metadata>
This is a custom SVG webfont generated by Font Squirrel.
Copyright   : Copyright 2007 Monotype Imaging Ltd All rights reserved
</metadata>
<defs>
<font id="SwedbankSansMedium" horiz-adv-x="1233" >
<font-face units-per-em="2048" ascent="1638" descent="-410" />
<missing-glyph horiz-adv-x="459" />
<glyph unicode=" "  horiz-adv-x="459" />
<glyph unicode="&#x09;" horiz-adv-x="459" />
<glyph unicode="&#xa0;" horiz-adv-x="459" />
<glyph unicode="!" horiz-adv-x="526" d="M162 1522h205l-17 -1135h-170zM164 0v274h196v-274h-196z" />
<glyph unicode="&#x22;" horiz-adv-x="815" d="M131 1020l29 473h190l-76 -473h-143zM506 1020l29 473h190l-76 -473h-143z" />
<glyph unicode="#" horiz-adv-x="1376" d="M127 412v143h209l37 342h-246v143h262l47 420h166l-47 -420h328l47 420h164l-45 -420h206v-143h-223l-37 -342h260v-143h-276l-45 -412h-166l45 412h-328l-45 -412h-166l45 412h-192zM502 555h327l37 342h-327z" />
<glyph unicode="$" horiz-adv-x="1225" d="M141 1102v41q0 163 90.5 243.5t280.5 94.5v200h164v-194q181 -9 336 -39v-141q-234 20 -371 20q-181 0 -243 -45.5t-62 -142.5v-35q0 -78 26 -117t89.5 -67t285.5 -107q207 -73 277.5 -154t70.5 -245v-60q0 -183 -100 -274.5t-309 -102.5v-213h-164v213q-201 7 -340 35 v144q361 -23 406 -23q172 0 241.5 54t69.5 169v54q0 105 -53 149t-195 96q-207 76 -279 109t-124 78.5t-74.5 106.5t-22.5 153z" />
<glyph unicode="%" horiz-adv-x="1821" d="M96 993v121q0 196 75 284.5t249 88.5q171 0 245 -89t74 -284v-121q0 -196 -74 -285.5t-245 -89.5q-174 0 -249 89t-75 286zM254 993q0 -106 20 -159.5t54.5 -69.5t91.5 -16q109 0 136.5 69t27.5 176v121q0 106 -20.5 159.5t-54.5 70t-89 16.5q-57 0 -91.5 -16.5 t-54.5 -69.5t-20 -160v-121zM440 0l772 1462h172l-774 -1462h-170zM1081 350v121q0 197 75 286t249 89q171 0 245 -89t74 -286v-121q0 -195 -74 -284t-245 -89q-174 0 -249 88.5t-75 284.5zM1239 350q0 -106 20 -159.5t54.5 -70t91.5 -16.5q109 0 136.5 69.5t27.5 176.5v121 q0 106 -20.5 160t-55 71t-88.5 17q-57 0 -91.5 -17t-54.5 -70.5t-20 -160.5v-121z" />
<glyph unicode="&#x26;" horiz-adv-x="1391" d="M100 334v20q0 130 69.5 222t211.5 167q-158 161 -193.5 243t-35.5 173v19q0 167 109 238t317 71q174 0 376 -39v-139q-251 22 -360 22q-146 0 -199 -37.5t-53 -126.5v-14q0 -82 38 -143.5t132 -157.5l504 -516q84 144 84 393h-172v133h340v-121q0 -321 -144 -518 l217 -223h-233l-104 106q-165 -131 -424 -131q-480 0 -480 359zM289 340q0 -213 295 -213q202 0 313 90l-408 414q-107 -65 -153.5 -126.5t-46.5 -146.5v-18z" />
<glyph unicode="'" horiz-adv-x="420" d="M102 1020l27 473h190l-75 -473h-142z" />
<glyph unicode="(" horiz-adv-x="657" d="M106 518v17q0 262 82.5 504t227.5 421h188q-305 -406 -305 -925v-17q0 -520 305 -924h-188q-146 181 -228 421.5t-82 502.5z" />
<glyph unicode=")" horiz-adv-x="655" d="M55 -406q303 406 303 924v17q0 517 -303 925h187q145 -179 227 -421t82 -504v-17q0 -262 -82 -502.5t-227 -421.5h-187z" />
<glyph unicode="*" horiz-adv-x="977" d="M106 1192l46 133q187 -57 274 -98q-8 65 -8 159v132h143v-132q0 -77 -10 -165q89 45 274 104l43 -131q-203 -71 -284 -88q37 -31 184 -225l-117 -82q-138 182 -166 245q-20 -56 -163 -245l-113 82q123 176 180 227q-103 24 -283 84z" />
<glyph unicode="+" horiz-adv-x="1298" d="M156 690v154h417v418h154v-418h416v-154h-416v-416h-154v416h-417z" />
<glyph unicode="," horiz-adv-x="469" d="M137 0v274h195v-266q0 -116 -53.5 -164t-141.5 -61v80q62 11 78 43t16 94h-94z" />
<glyph unicode="-" horiz-adv-x="727" d="M121 498v157h485v-157h-485z" />
<glyph unicode="." horiz-adv-x="461" d="M133 0v274h195v-274h-195z" />
<glyph unicode="/" horiz-adv-x="735" d="M-20 0l589 1460h187l-590 -1460h-186z" />
<glyph unicode="0" d="M115 545v370q0 297 117.5 433.5t383.5 136.5q267 0 384.5 -136.5t117.5 -433.5v-370q0 -306 -122 -438t-380 -132q-266 0 -383.5 136.5t-117.5 433.5zM313 545q0 -205 60 -303.5t241 -98.5q185 0 244.5 101t59.5 301v370q0 195 -55.5 298.5t-248.5 103.5 q-189 0 -245 -103.5t-56 -298.5v-370z" />
<glyph unicode="1" d="M223 0v162l312 8v1108l-312 -94v166l363 120h143v-1300l311 -8v-162h-817z" />
<glyph unicode="2" d="M162 0v166q0 225 75 353.5t365 287.5q165 90 215.5 152t50.5 151v37q0 111 -70 145.5t-239 34.5q-141 0 -377 -31v140q199 49 389 49q287 0 392.5 -76t105.5 -262v-33q0 -157 -88 -252t-250 -182q-171 -93 -248.5 -158t-103 -135t-25.5 -192v-27h690v-168h-882z" />
<glyph unicode="3" d="M172 27v137q287 -31 381 -31q205 0 257 59.5t52 186.5v86q0 77 -13.5 119t-62.5 66t-153 24h-400v162h400q103 0 152.5 26t63 70t13.5 121v63q0 134 -63.5 172.5t-245.5 38.5q-154 0 -381 -31v138q184 51 387 51q292 0 396 -81.5t104 -285.5v-59q0 -229 -176 -301 q92 -42 134 -109t42 -188v-86q0 -213 -109 -306.5t-391 -93.5q-200 0 -387 52z" />
<glyph unicode="4" d="M66 385v160l718 915h181v-913h202v-162h-202v-385h-197v385h-702zM252 547h520v667z" />
<glyph unicode="5" d="M158 18v150q265 -33 374 -33q196 0 269 49.5t73 212.5v90q0 156 -67.5 195t-267.5 39h-355l64 739h801l-31 -168h-602l-35 -407h180q305 0 408.5 -88t103.5 -301v-105q0 -223 -120 -319.5t-402 -96.5q-184 0 -393 43z" />
<glyph unicode="6" d="M123 506v467q0 289 123 400.5t401 111.5q206 0 395 -45v-142q-246 27 -395 27q-150 0 -220.5 -40t-90 -111t-19.5 -201v-103q173 43 326 43q198 0 289 -41t133.5 -126t42.5 -216v-118q0 -219 -119 -328t-373 -109q-287 0 -390 136t-103 395zM317 489q0 -185 59 -269.5 t240 -84.5q160 0 227.5 68t67.5 215v106q0 106 -29 157.5t-88 67t-169 15.5q-142 0 -308 -39v-236z" />
<glyph unicode="7" d="M156 1290l45 170h874v-170l-583 -1290h-222l596 1290h-710z" />
<glyph unicode="8" d="M96 399v35q0 234 160 328q-154 90 -154 299v37q0 186 102.5 286.5t389.5 100.5h41q288 0 389.5 -101t101.5 -286v-37q0 -211 -151 -299q160 -97 160 -328v-35q0 -186 -74.5 -279t-179 -119t-246.5 -26h-41q-206 0 -304.5 47t-146 141t-47.5 236zM295 399 q0 -116 36.5 -175t99.5 -78t163 -19h41q188 0 244.5 70t56.5 202v37q0 138 -46.5 193t-152.5 55h-245q-106 0 -151.5 -54.5t-45.5 -193.5v-37zM299 1057q0 -123 46 -173t147 -50h245q101 0 147 50t46 173v37q0 102 -36 153.5t-97.5 67.5t-161.5 16h-41q-189 0 -242 -61 t-53 -176v-37z" />
<glyph unicode="9" d="M123 930v117q0 147 52.5 244t160 145.5t278.5 48.5q288 0 391 -136t103 -395v-469q0 -288 -123 -400t-401 -112q-215 0 -412 45v144q241 -27 412 -27q149 0 218.5 39.5t88 109.5t18.5 201v105q-165 -45 -321 -45q-282 0 -373.5 100t-91.5 285zM319 936 q0 -106 29.5 -156.5t88 -66t169.5 -15.5q147 0 303 35v236q0 145 -32 222t-94.5 105.5t-168.5 28.5q-159 0 -227 -67.5t-68 -215.5v-106z" />
<glyph unicode=":" horiz-adv-x="469" d="M137 0v274h195v-274h-195zM137 801v276h195v-276h-195z" />
<glyph unicode=";" horiz-adv-x="477" d="M133 -143q63 12 78.5 45.5t15.5 97.5h-90v274h195v-272q0 -109 -52.5 -159t-146.5 -64v78zM137 801v276h195v-276h-195z" />
<glyph unicode="&#x3c;" horiz-adv-x="1298" d="M240 768l565 496h252l-563 -496l563 -498h-252z" />
<glyph unicode="=" horiz-adv-x="1298" d="M209 469v156h878v-156h-878zM209 911v156h878v-156h-878z" />
<glyph unicode="&#x3e;" horiz-adv-x="1298" d="M240 270l563 498l-563 496h254l563 -496l-563 -498h-254z" />
<glyph unicode="?" horiz-adv-x="920" d="M63 1368v133q177 43 381 43q200 0 284.5 -67t84.5 -234v-31q0 -121 -46 -202.5t-177 -200.5q-121 -112 -151.5 -174.5t-30.5 -169.5v-78h-172v78q0 140 35.5 225t158.5 199q110 103 142 157.5t32 151.5v29q0 91 -35.5 127.5t-173.5 36.5q-171 0 -332 -23zM223 0v274h197 v-274h-197z" />
<glyph unicode="@" horiz-adv-x="1608" d="M92 344q0 512 184.5 727t589.5 215q318 0 482.5 -145.5t164.5 -423.5q0 -263 -99.5 -419.5t-291.5 -156.5q-133 0 -180 88q-94 -104 -248 -104q-128 0 -197 70.5t-69 205.5q0 305 88 430t293 125q159 0 319 -38q-49 -509 -49 -537q0 -107 76 -107q108 0 164.5 115 t56.5 330q0 450 -510 450q-338 0 -490.5 -185t-152.5 -640q0 -169 54.5 -263t164.5 -136.5t281 -42.5q223 0 414 35v-99q-197 -47 -412 -47q-324 0 -478.5 131t-154.5 422zM594 397q0 -139 125 -139q91 0 137.5 49t56.5 156l33 336q-82 14 -137 14q-73 0 -120 -28 t-71 -114.5t-24 -273.5z" />
<glyph unicode="A" horiz-adv-x="1339" d="M55 0l467 1460h295l467 -1460h-211l-131 428h-541l-135 -428h-211zM446 594h447l-150 477q-35 110 -65 258h-19q-45 -213 -61 -261z" />
<glyph unicode="B" horiz-adv-x="1272" d="M156 0v1460h462q310 0 416.5 -84.5t106.5 -269.5v-41q0 -245 -203 -303q221 -58 221 -322v-63q0 -163 -63.5 -244.5t-181.5 -107t-322 -25.5h-436zM348 158h244q235 0 304 43t69 180v63q0 126 -71 182t-251 56h-295v-524zM348 831h297q156 0 229.5 51t73.5 181v47 q0 121 -71 155.5t-273 34.5h-256v-469z" />
<glyph unicode="C" horiz-adv-x="1143" d="M129 543v377q0 278 121 421.5t479 143.5q190 0 338 -35v-158q-238 25 -332 25q-146 0 -228 -22t-131.5 -108t-49.5 -267v-377q0 -182 49.5 -267.5t131.5 -108t228 -22.5q29 0 332 25v-158q-148 -35 -338 -35q-361 0 -480.5 144t-119.5 422z" />
<glyph unicode="D" horiz-adv-x="1364" d="M158 0v1462h432q357 0 501 -119t144 -438v-356q0 -314 -143.5 -431.5t-499.5 -117.5h-434zM350 164h240q176 0 268 25.5t138 109.5t46 258v348q0 174 -46 257t-138 108.5t-268 25.5h-240v-1132z" />
<glyph unicode="E" horiz-adv-x="1145" d="M156 0v1460h876v-168h-680v-452h639l-51 -164h-588v-508h680v-168h-876z" />
<glyph unicode="F" horiz-adv-x="1069" d="M156 0v1460h872l-51 -168h-625v-452h617v-166h-617v-674h-196z" />
<glyph unicode="G" horiz-adv-x="1303" d="M129 545v381q0 241 82 364t209 160t311 37q214 0 424 -39v-158q-257 27 -430 27q-139 0 -220.5 -24t-130 -108.5t-48.5 -258.5v-381q0 -182 50 -268.5t132.5 -110t226.5 -23.5q69 0 232 11v477h-217v166h407v-785q-233 -39 -432 -39q-347 0 -471.5 145.5t-124.5 426.5z " />
<glyph unicode="H" horiz-adv-x="1427" d="M156 0v1460h196v-604h723v604h197v-1460h-197v682h-723v-682h-196z" />
<glyph unicode="I" horiz-adv-x="526" d="M166 0v1460h196v-1460h-196z" />
<glyph unicode="J" horiz-adv-x="514" d="M-100 -262h120q89 0 113.5 34.5t24.5 129.5v1558h196v-1558q0 -177 -72.5 -249.5t-238.5 -72.5q-76 0 -143 12v146z" />
<glyph unicode="K" horiz-adv-x="1253" d="M156 0v1460h196v-684l615 684h239l-649 -715l649 -745h-258l-596 700v-700h-196z" />
<glyph unicode="L" horiz-adv-x="1053" d="M156 0v1460h196v-1288h658v-172h-854z" />
<glyph unicode="M" horiz-adv-x="1581" d="M156 0v1460h241q373 -694 389 -739h9q54 120 102 207l291 532h237v-1460h-192v897q0 109 8 311h-10q-63 -140 -113 -230l-244 -441h-172q-281 518 -352 671h-8q6 -202 6 -311v-897h-192z" />
<glyph unicode="N" horiz-adv-x="1417" d="M156 0v1460h252l532 -968q105 -192 141 -265h2q-8 103 -8 332v901h187v-1460h-248l-527 958q-92 167 -149 281h-4q8 -256 8 -326v-913h-186z" />
<glyph unicode="O" horiz-adv-x="1378" d="M127 541v379q0 291 134 429t429 138q297 0 429 -137t132 -430v-379q0 -294 -132 -431t-429 -137q-295 0 -429 138t-134 430zM326 541q0 -200 73 -299t291 -99t291.5 99t73.5 299v379q0 199 -73.5 298t-291.5 99t-291 -99t-73 -298v-379z" />
<glyph unicode="P" horiz-adv-x="1243" d="M156 0v1460h419q212 0 333.5 -24t189 -104.5t67.5 -244.5v-98q0 -219 -132 -320.5t-458 -101.5h-227v-567h-192zM348 723h227q231 0 313.5 55.5t82.5 210.5v92q0 123 -59 175.5t-337 52.5h-227v-586z" />
<glyph unicode="Q" horiz-adv-x="1378" d="M127 541v379q0 291 134 429t429 138q297 0 429 -137t132 -430v-379q0 -273 -114.5 -409.5t-354.5 -154.5v-114q0 -77 31.5 -91t110.5 -14h155v-120q-98 -19 -221 -19q-150 0 -207 59t-57 183v119q-239 15 -353 151t-114 410zM324 541q0 -136 32 -222.5t106 -131 t228 -44.5q219 0 293 99t74 299v379q0 135 -32.5 221.5t-106.5 131t-228 44.5q-218 0 -292 -99t-74 -298v-379z" />
<glyph unicode="R" horiz-adv-x="1276" d="M156 0v1460h450q238 0 338.5 -37t145.5 -115.5t45 -205.5v-127q0 -153 -65 -236.5t-208 -117.5l320 -621h-217l-301 596q-43 -4 -125 -4h-191v-592h-192zM348 750h215q149 0 224.5 13.5t114 61.5t38.5 150v127q0 90 -31.5 131.5t-103 54t-221.5 12.5h-236v-550z" />
<glyph unicode="S" horiz-adv-x="1167" d="M104 1102v41q0 180 113.5 262t368.5 82q194 0 389 -39v-141q-234 20 -373 20q-180 0 -241.5 -45.5t-61.5 -142.5v-35q0 -78 26 -117t89.5 -67t285.5 -107q207 -73 278 -154t71 -245v-60q0 -196 -115.5 -288.5t-368.5 -92.5q-228 0 -430 39v144q362 -23 406 -23 q171 0 240 53.5t69 169.5v54q0 95 -46 141t-200 102q-207 75 -279 108t-123.5 79t-74.5 108t-23 154z" />
<glyph unicode="T" horiz-adv-x="1214" d="M68 1292v168h1081v-168h-444v-1292h-195v1292h-442z" />
<glyph unicode="U" horiz-adv-x="1376" d="M150 530v930h194v-907q0 -230 71.5 -318t270.5 -88q201 0 272.5 87.5t71.5 318.5v907h195v-930q0 -291 -125 -424t-414 -133q-286 0 -411 134t-125 423z" />
<glyph unicode="V" horiz-adv-x="1366" d="M70 1460h211l329 -1061q14 -41 64 -258h16q35 153 68 258l327 1061h211l-467 -1460h-292z" />
<glyph unicode="W" horiz-adv-x="1800" d="M94 1460h203l211 -1263h10q38 149 89 330l161 567h272q238 -835 248 -895h12l43 274l166 987h201l-256 -1460h-287l-264 944h-2q-68 -265 -76 -294l-186 -650h-287z" />
<glyph unicode="X" horiz-adv-x="1360" d="M82 0l475 752l-465 708h225l367 -561l346 561h219l-456 -719l485 -741h-227l-385 588l-367 -588h-217z" />
<glyph unicode="Y" horiz-adv-x="1260" d="M70 1460h211l256 -508q54 -107 94 -204h2q37 96 81 184l267 528h209l-463 -887v-573h-195v573z" />
<glyph unicode="Z" horiz-adv-x="1241" d="M121 0v164l743 1122h-731l60 174h903v-168l-742 -1118h762v-174h-995z" />
<glyph unicode="[" horiz-adv-x="694" d="M158 -408v1868h467v-157h-277v-1553h277v-158h-467z" />
<glyph unicode="\" horiz-adv-x="786" d="M6 1460h187l587 -1460h-188z" />
<glyph unicode="]" horiz-adv-x="694" d="M70 -250h278v1553h-278v157h467v-1868h-467v158z" />
<glyph unicode="^" horiz-adv-x="1298" d="M190 817l320 651h278l318 -651h-186l-271 574l-272 -574h-187z" />
<glyph unicode="_" horiz-adv-x="1040" d="M-53 -92h1145v-123h-1145v123z" />
<glyph unicode="`" horiz-adv-x="831" d="M61 1513h234l256 -299h-193z" />
<glyph unicode="a" horiz-adv-x="1073" d="M102 242v77q0 133 62.5 195.5t162 83.5t404.5 55v82q0 141 -41.5 184.5t-191.5 43.5q-162 0 -322 -21v123q160 47 346 47q205 0 301.5 -68.5t96.5 -308.5v-735h-170v84q-191 -109 -359 -109q-289 0 -289 267zM287 250q0 -71 35 -105t124 -34q136 0 289 82v327 q-251 -28 -317 -39.5t-98.5 -46.5t-32.5 -121v-63z" />
<glyph unicode="b" horiz-adv-x="1114" d="M154 14v1493l188 29v-446q126 22 238 22q243 0 334.5 -99t91.5 -313v-299q0 -231 -111 -328.5t-350 -97.5q-228 0 -391 39zM340 141q128 -8 199 -8q173 0 223.5 60t50.5 223v284q0 137 -50 196.5t-196 59.5q-108 0 -227 -16v-799z" />
<glyph unicode="c" horiz-adv-x="907" d="M111 414v262q0 239 98.5 337.5t322.5 98.5q162 0 293 -35v-139q-170 16 -258 16q-99 0 -152.5 -17t-83.5 -80.5t-30 -197.5v-231q0 -131 30 -195t84.5 -83t151.5 -19q110 0 258 21v-140q-109 -37 -293 -37q-230 0 -325.5 102t-95.5 337z" />
<glyph unicode="d" horiz-adv-x="1112" d="M111 403v259q0 233 93 341.5t320 108.5q118 0 246 -20v415l188 31v-1538h-170v66q-175 -91 -317 -91q-191 0 -275.5 102.5t-84.5 325.5zM301 418q0 -169 44 -229t159 -60q124 0 268 66v747q-137 16 -237 16q-137 0 -185.5 -71t-48.5 -225v-244z" />
<glyph unicode="e" horiz-adv-x="1077" d="M111 422v227q0 232 98 347.5t330 115.5q228 0 328 -107.5t100 -361.5v-160h-668v-59q0 -107 17 -165.5t78.5 -91t191.5 -32.5q142 0 346 23v-135q-212 -46 -357 -46q-231 0 -347.5 93t-116.5 352zM299 616h479v46q0 98 -13.5 158t-65 98t-158.5 38q-117 0 -179.5 -56 t-62.5 -236v-48z" />
<glyph unicode="f" horiz-adv-x="770" d="M53 936v151h195v127q0 202 70.5 266t209.5 64q99 0 211 -26v-121q-64 6 -176 6q-82 0 -103.5 -40t-21.5 -149v-127h301l-41 -151h-260v-936h-190v936h-195z" />
<glyph unicode="g" horiz-adv-x="1167" d="M100 -74q0 76 41 168l154 -39q-29 -61 -29 -125q0 -121 75 -160.5t239 -39.5q158 0 228.5 42.5t70.5 153.5q0 72 -23.5 105t-70 45.5t-154.5 25.5l-209 25q-160 19 -214 70t-54 145q0 101 82 170q-91 77 -91 250q0 181 109 264.5t328 83.5q40 0 75 -2.5t65 -9.5l58 -13 l297 39v-127l-129 -28q66 -76 66 -207q0 -181 -106 -263.5t-326 -82.5q-134 0 -222 28q-38 -37 -38 -88q0 -68 75 -78l269 -34q141 -18 222 -43t130 -89t49 -186q0 -180 -119 -263t-368 -83q-246 0 -363 81.5t-117 264.5zM330 762q0 -104 53.5 -155.5t198.5 -51.5 q128 0 187.5 45t59.5 162t-60 164t-187 47q-130 0 -191 -44.5t-61 -166.5z" />
<glyph unicode="h" horiz-adv-x="1163" d="M156 0v1507l188 31v-530q195 104 356 104q166 0 241 -77.5t75 -282.5v-752h-189v748q0 122 -36 164t-134 42q-138 0 -313 -90v-864h-188z" />
<glyph unicode="i" horiz-adv-x="512" d="M160 1294v228h192v-228h-192zM162 0v1087h188v-1087h-188z" />
<glyph unicode="j" horiz-adv-x="510" d="M-59 -274h106q69 0 92 25t23 120v1216h188v-1216q0 -166 -58 -228.5t-210 -62.5q-94 0 -141 14v132zM160 1294v228h192v-228h-192z" />
<glyph unicode="k" horiz-adv-x="1036" d="M154 0v1507l188 31v-938l416 487h229l-442 -516l446 -571h-233l-416 532v-532h-188z" />
<glyph unicode="l" horiz-adv-x="510" d="M160 0v1507l188 31v-1538h-188z" />
<glyph unicode="m" horiz-adv-x="1690" d="M154 0v1087h178v-94q172 119 338 119q180 0 239 -127q166 127 338 127q146 0 219.5 -65.5t73.5 -294.5v-752h-188v748q0 125 -30 162.5t-120 37.5q-104 0 -264 -90q2 -35 2 -106v-752h-188v752q0 118 -23.5 157t-112.5 39q-91 0 -274 -88v-860h-188z" />
<glyph unicode="n" horiz-adv-x="1161" d="M154 0v1087h182v-94q193 119 366 119q163 0 237.5 -80.5t74.5 -275.5v-756h-191v748q0 116 -33 159t-133 43q-136 0 -315 -92v-858h-188z" />
<glyph unicode="o" horiz-adv-x="1122" d="M111 406v276q0 226 113.5 328t336.5 102q230 0 340.5 -106t110.5 -324v-276q0 -219 -110.5 -325t-340.5 -106q-231 0 -340.5 106t-109.5 325zM297 418q0 -146 57.5 -216.5t206.5 -70.5t205.5 70.5t56.5 216.5v252q0 147 -57.5 216.5t-204.5 69.5t-205.5 -70t-58.5 -216 v-252z" />
<glyph unicode="p" horiz-adv-x="1116" d="M154 -418v1505h172v-67q75 42 168 67t161 25q192 0 271.5 -98t79.5 -322v-274q0 -226 -94.5 -334.5t-352.5 -108.5q-130 0 -217 15v-377zM340 141q117 -12 215 -12q157 0 208.5 73.5t51.5 219.5v248q0 165 -40.5 226.5t-160.5 61.5q-130 0 -274 -67v-750z" />
<glyph unicode="q" horiz-adv-x="1112" d="M111 385v309q0 234 109.5 326t354.5 92q211 0 386 -41v-1458l-189 -31v430q-160 -35 -283 -35q-203 0 -290.5 99.5t-87.5 308.5zM301 406q0 -142 41.5 -208.5t155.5 -66.5q122 0 274 31v786q-158 10 -192 10q-178 0 -228.5 -65t-50.5 -219v-268z" />
<glyph unicode="r" horiz-adv-x="762" d="M156 0v1087h174v-104q165 129 377 129v-182q-226 0 -363 -90v-840h-188z" />
<glyph unicode="s" horiz-adv-x="944" d="M109 811v35q0 138 91 202t285 64q183 0 326 -37v-133q-239 19 -317 19q-106 0 -151.5 -24.5t-45.5 -96.5v-27q0 -52 32 -81.5t138 -69.5q182 -71 250 -108t100.5 -92.5t32.5 -152.5v-37q0 -297 -395 -297q-178 0 -334 41v134q206 -23 325 -23q111 0 162 33t51 112v35 q0 73 -48 99.5t-224 95.5q-155 59 -216.5 122t-61.5 187z" />
<glyph unicode="t" horiz-adv-x="817" d="M51 936v151h207v246l188 33v-279h322l-45 -151h-277v-678q0 -87 20 -112t95 -25q87 0 160 8v-127q-88 -27 -195 -27q-156 0 -212 59.5t-56 215.5v686h-207z" />
<glyph unicode="u" horiz-adv-x="1161" d="M150 348v739h190v-739q0 -132 36 -171.5t128 -39.5q126 0 315 94v856h191v-1087h-176v96q-208 -121 -377 -121q-160 0 -233.5 77.5t-73.5 295.5z" />
<glyph unicode="v" horiz-adv-x="1118" d="M78 1087h205q260 -900 274 -966h8l116 420l157 546h202l-340 -1087h-280z" />
<glyph unicode="w" horiz-adv-x="1698" d="M94 1087h199q133 -658 145.5 -727t30.5 -198h4q23 91 69 230l181 560h250q243 -763 250 -790h4q15 111 47 275l127 650h196l-235 -1087h-246q-264 792 -266 829h-4q-30 -119 -47 -169l-221 -660h-244z" />
<glyph unicode="x" horiz-adv-x="1114" d="M61 0l381 561l-362 526h219l270 -399l265 399h206l-366 -536l381 -551h-224l-288 422l-277 -422h-205z" />
<glyph unicode="y" horiz-adv-x="1126" d="M78 1087h207q205 -585 234.5 -674.5t51.5 -185.5h11q29 122 85 298l179 562h203l-496 -1507h-195l138 416z" />
<glyph unicode="z" horiz-adv-x="997" d="M96 0v154l576 778h-553l45 155h733v-149l-573 -780h575v-158h-803z" />
<glyph unicode="{" horiz-adv-x="739" d="M70 459v131q73 46 101 90.5t28 142.5v355q0 175 82 228.5t262 53.5h123v-157h-123q-103 0 -128.5 -23t-25.5 -102v-355q0 -111 -32.5 -179t-106.5 -120q74 -51 106.5 -120t32.5 -181v-352q0 -80 25.5 -102.5t128.5 -22.5h127v-156h-127q-179 0 -261.5 54t-82.5 227v352 q0 100 -27.5 144.5t-101.5 91.5z" />
<glyph unicode="|" horiz-adv-x="524" d="M166 -410v1870h192v-1870h-192z" />
<glyph unicode="}" horiz-adv-x="739" d="M70 -254h127q101 0 127 23t26 102v352q0 113 32.5 181.5t106.5 119.5q-73 49 -106 117t-33 182v355q0 79 -26 102t-127 23h-123v157h121q180 0 263 -53t83 -229v-355q0 -97 27 -141.5t100 -91.5v-131q-74 -47 -100.5 -92t-26.5 -144v-352q0 -174 -83.5 -227.5 t-262.5 -53.5h-125v156z" />
<glyph unicode="~" horiz-adv-x="1298" d="M147 690q26 365 293 365q90 0 147.5 -28.5t127.5 -86.5q63 -51 93 -68.5t64 -17.5q107 0 125 197h166q-30 -367 -291 -367q-65 0 -122 18.5t-134 85.5q-76 68 -110.5 83.5t-67.5 15.5q-109 0 -129 -197h-162z" />
<glyph unicode="&#xa1;" horiz-adv-x="526" d="M162 -428l18 1130h170l17 -1130h-205zM164 815v275h196v-275h-196z" />
<glyph unicode="&#xa2;" horiz-adv-x="938" d="M109 463v160q0 436 337 481v211h170v-207q131 -8 234 -35v-143q-124 18 -275 18q-161 0 -217.5 -78.5t-56.5 -246.5v-160q0 -189 67 -256.5t207 -67.5q114 0 275 21v-146q-91 -29 -234 -34v-213h-170v215q-337 43 -337 481z" />
<glyph unicode="&#xa3;" horiz-adv-x="1198" d="M106 684v150h154v165q0 278 107.5 382t357.5 104q171 0 356 -33v-154q-192 19 -329 19q-171 0 -234 -60t-63 -258v-165h477v-150h-477v-295q0 -134 -68 -227h694v-162h-913v143q92 93 92 246v295h-154z" />
<glyph unicode="&#xa4;" horiz-adv-x="1208" d="M94 344l174 172q-71 104 -71 227q0 121 71 228l-174 174l107 102l172 -172q109 72 231 72q130 0 230 -72l174 170l106 -102l-174 -172q74 -105 74 -228t-74 -229l172 -170l-104 -104l-174 172q-107 -72 -230 -72q-122 0 -229 72l-174 -174zM338 743q0 -108 78 -187 t188 -79q113 0 190.5 82t77.5 184q0 108 -79 187.5t-189 79.5q-107 0 -186.5 -79t-79.5 -188z" />
<glyph unicode="&#xa5;" horiz-adv-x="1272" d="M74 1460h213l257 -514q52 -103 91 -198h2q11 47 348 712h211l-268 -512h237v-139h-311l-115 -221h426v-139h-432v-449h-194v449h-439v139h430l-116 221h-314v139h242z" />
<glyph unicode="&#xa6;" horiz-adv-x="545" d="M176 393h191v-801h-191v801zM176 684v776h191v-776h-191z" />
<glyph unicode="&#xa7;" horiz-adv-x="1178" d="M106 645v45q0 141 111 209q-67 48 -85.5 97.5t-18.5 121.5v35q0 174 114.5 253t372.5 79q218 0 393 -41v-139q-273 20 -377 20q-191 0 -248 -44t-57 -136v-27q0 -58 43 -94.5t135 -71.5q284 -106 349 -133t121.5 -70.5t82 -106.5t25.5 -161v-37q0 -143 -111 -208 q107 -71 107 -222v-57q0 -197 -118 -288t-376 -91q-215 0 -422 39v143q294 -22 408 -22q167 0 237 53.5t70 167.5v51q0 63 -36 101t-146 77q-263 96 -333 125t-128.5 74t-85.5 106t-27 152zM285 653q0 -70 25 -108.5t88.5 -68t283.5 -109.5q81 -29 121 -50q86 39 86 127v33 q0 94 -48 137.5t-192 96.5q-248 92 -284 110q-80 -34 -80 -123v-45z" />
<glyph unicode="&#xa8;" horiz-adv-x="831" d="M143 1294v228h172v-228h-172zM516 1294v228h172v-228h-172z" />
<glyph unicode="&#xa9;" horiz-adv-x="1589" d="M109 739q0 308 193 510.5t491 202.5q293 0 485 -202.5t192 -510.5q0 -309 -192 -511.5t-485 -202.5q-296 0 -490 203t-194 511zM242 739q0 -257 154 -421t395 -164q236 0 391 165t155 420q0 256 -154.5 420t-391.5 164q-241 0 -395 -163.5t-154 -420.5zM463 678v125 q0 196 92 274t252 78q108 0 201 -20v-113q-106 10 -195 10q-123 0 -165 -57.5t-42 -171.5v-125q0 -108 37.5 -168.5t169.5 -60.5q99 0 195 6v-113q-89 -14 -201 -14q-183 0 -263.5 86.5t-80.5 263.5z" />
<glyph unicode="&#xaa;" horiz-adv-x="729" d="M102 1026v18q0 84 36 123t98.5 53t236.5 35v41q0 59 -20 70.5t-107 11.5q-99 0 -203 -10v98q100 27 250 27q151 0 193.5 -41.5t42.5 -155.5v-432h-142v43q-101 -57 -188 -57q-197 0 -197 176zM250 1030q0 -37 17.5 -56.5t72.5 -19.5q54 0 139 39v176 q-126 -18 -160.5 -25.5t-51.5 -27t-17 -67.5v-19z" />
<glyph unicode="&#xab;" horiz-adv-x="1227" d="M113 547l276 409h209l-274 -409l274 -410h-209zM631 547l274 409h209l-272 -409l272 -410h-209z" />
<glyph unicode="&#xac;" horiz-adv-x="1296" d="M209 911v156h881v-598h-160v442h-721z" />
<glyph unicode="&#xad;" horiz-adv-x="727" d="M121 498v157h485v-157h-485z" />
<glyph unicode="&#xae;" horiz-adv-x="1268" d="M106 936q0 240 148 396.5t375 156.5t374.5 -156.5t147.5 -396.5t-147.5 -396.5t-374.5 -156.5q-226 0 -374.5 157t-148.5 396zM225 936q0 -201 110 -324t294 -123q182 0 294.5 123.5t112.5 323.5q0 199 -112.5 321.5t-294.5 122.5t-293 -122t-111 -322zM416 662v573h198 q135 0 183.5 -39.5t48.5 -124.5v-14q0 -122 -105 -160l144 -235h-131l-125 217q-10 -2 -33 -2h-70v-215h-110zM526 963h84q78 0 100.5 21t22.5 73v10q0 53 -24.5 65.5t-96.5 12.5h-86v-182z" />
<glyph unicode="&#xaf;" horiz-adv-x="1040" d="M-51 1597v123h1145v-123h-1145z" />
<glyph unicode="&#xb0;" horiz-adv-x="823" d="M80 1151q0 137 98 234.5t236 97.5q136 0 233.5 -98t97.5 -234q0 -137 -97.5 -234.5t-233.5 -97.5q-138 0 -236 98t-98 234zM217 1151q0 -87 57.5 -146t139.5 -59q81 0 137.5 59t56.5 146t-56 146t-138 59t-139.5 -59.5t-57.5 -145.5z" />
<glyph unicode="&#xb1;" horiz-adv-x="1298" d="M158 713v153h415v414h154v-414h414v-153h-414v-414h-154v414h-415zM164 0v154h969v-154h-969z" />
<glyph unicode="&#xb2;" horiz-adv-x="764" d="M92 637v96q0 119 46 199t210 168q106 56 136 87t30 81v12q0 59 -32 74.5t-124 15.5q-44 0 -241 -16v96q149 37 268 37q186 0 236.5 -51t50.5 -152v-18q0 -78 -47 -133.5t-179 -124.5q-125 -66 -164.5 -108t-39.5 -122v-18h415v-123h-565z" />
<glyph unicode="&#xb3;" horiz-adv-x="764" d="M92 1356v94q136 37 275 37q185 0 245 -52.5t60 -162.5v-23q0 -128 -111 -184q111 -53 111 -182v-27q0 -123 -65.5 -180.5t-246.5 -57.5q-124 0 -262 33v99q178 -13 244 -13q98 0 136 23.5t38 107.5v21q0 64 -27 93.5t-112 29.5h-234v104h234q69 0 104 26.5t35 98.5v12 q0 78 -33.5 97.5t-142.5 19.5q-79 0 -248 -14z" />
<glyph unicode="&#xb4;" horiz-adv-x="831" d="M258 1214l256 299h231l-294 -299h-193z" />
<glyph unicode="&#xb5;" horiz-adv-x="1165" d="M154 -418v1505h188v-739q0 -118 33.5 -163.5t130.5 -45.5q131 0 315 97v851h193v-1087h-178v94q-199 -115 -366 -115q-74 0 -128 19v-385z" />
<glyph unicode="&#xb6;" horiz-adv-x="1366" d="M127 963v38q0 234 127 346.5t504 112.5h491v-1849h-151v1694h-146v-1694h-151v893h-60q-343 0 -478.5 111.5t-135.5 347.5z" />
<glyph unicode="&#xb7;" horiz-adv-x="463" d="M137 588v274h193v-274h-193z" />
<glyph unicode="&#xb8;" horiz-adv-x="831" d="M109 -410l225 277h231l-264 -277h-192z" />
<glyph unicode="&#xb9;" horiz-adv-x="614" d="M88 627v121l145 4v569l-145 -39v121l186 61h111v-712l143 -4v-121h-440z" />
<glyph unicode="&#xba;" horiz-adv-x="780" d="M102 1128v89q0 142 69 209t220 67q150 0 218.5 -67t68.5 -209v-89q0 -142 -69.5 -210t-217.5 -68q-149 0 -219 68t-70 210zM254 1128q0 -92 31 -124.5t106 -32.5q80 0 106.5 36t26.5 121v89q0 91 -30 125t-103 34q-78 0 -107.5 -37t-29.5 -122v-89z" />
<glyph unicode="&#xbb;" horiz-adv-x="1227" d="M113 137l272 410l-272 409h209l276 -409l-276 -410h-209zM631 137l272 410l-272 409h209l274 -409l-274 -410h-209z" />
<glyph unicode="&#xbc;" horiz-adv-x="1577" d="M82 627v121l145 4v569l-145 -39v121l186 61h111v-712l143 -4v-121h-440zM296 0l772 1462h172l-774 -1462h-170zM822 203v110l406 525h147v-523h121v-112h-121v-203h-155v203h-398zM966 315h258v347z" />
<glyph unicode="&#xbd;" horiz-adv-x="1663" d="M83 627v121l145 4v569l-145 -39v121l186 61h111v-712l143 -4v-121h-440zM296 0l772 1462h172l-774 -1462h-170zM1000 -1v96q0 119 46 199t210 168q106 56 136 87t30 81v12q0 59 -32 74.5t-124 15.5q-44 0 -241 -16v96q149 37 268 37q186 0 236.5 -51t50.5 -152v-18 q0 -78 -47 -133.5t-179 -124.5q-125 -66 -164.5 -108t-39.5 -122v-18h415v-123h-565z" />
<glyph unicode="&#xbe;" horiz-adv-x="1706" d="M80 1356v94q136 37 275 37q185 0 245 -52.5t60 -162.5v-23q0 -128 -111 -184q111 -53 111 -182v-27q0 -123 -65.5 -180.5t-246.5 -57.5q-124 0 -262 33v99q178 -13 244 -13q98 0 136 23.5t38 107.5v21q0 64 -27 93.5t-112 29.5h-234v104h234q69 0 104 26.5t35 98.5v12 q0 78 -33.5 97.5t-142.5 19.5q-79 0 -248 -14zM428 0l772 1462h172l-774 -1462h-170zM950 203v110l406 525h147v-523h121v-112h-121v-203h-155v203h-398zM1094 315h258v347z" />
<glyph unicode="&#xbf;" horiz-adv-x="920" d="M92 -123q0 119 45.5 202t175.5 202q122 111 152.5 173t30.5 171v77h174v-77q0 -139 -36.5 -225t-158.5 -199q-111 -103 -143.5 -157t-32.5 -150v-31q0 -91 35.5 -127.5t173.5 -36.5q177 0 332 25v-134q-160 -43 -381 -43q-200 0 -283.5 66.5t-83.5 232.5v31zM485 815v275 h195v-275h-195z" />
<glyph unicode="&#xc0;" horiz-adv-x="1339" d="M55 0l467 1460h295l467 -1460h-211l-131 428h-541l-135 -428h-211zM370 1839h234l256 -299h-193zM446 594h447l-150 477q-35 110 -65 258h-19q-45 -213 -61 -261z" />
<glyph unicode="&#xc1;" horiz-adv-x="1339" d="M55 0l467 1460h295l467 -1460h-211l-131 428h-541l-135 -428h-211zM446 594h447l-150 477q-35 110 -65 258h-19q-45 -213 -61 -261zM539 1540l256 299h231l-294 -299h-193z" />
<glyph unicode="&#xc2;" horiz-adv-x="1339" d="M55 0l467 1460h295l467 -1460h-211l-131 428h-541l-135 -428h-211zM287 1540l260 299h252l258 -299h-183l-202 216l-201 -216h-184zM446 594h447l-150 477q-35 110 -65 258h-19q-45 -213 -61 -261z" />
<glyph unicode="&#xc3;" horiz-adv-x="1339" d="M55 0l467 1460h295l467 -1460h-211l-131 428h-541l-135 -428h-211zM285 1530v48q0 235 205 235q49 0 98 -17t127 -81q91 -70 133 -70q41 0 59.5 27t18.5 102v33h125v-43q0 -242 -203 -242q-106 0 -213 88q-68 57 -96.5 69.5t-52.5 12.5q-40 0 -58 -24.5t-18 -102.5v-35 h-125zM446 594h447l-150 477q-35 110 -65 258h-19q-45 -213 -61 -261z" />
<glyph unicode="&#xc4;" horiz-adv-x="1339" d="M55 0l467 1460h295l467 -1460h-211l-131 428h-541l-135 -428h-211zM395 1599v228h172v-228h-172zM446 594h447l-150 477q-35 110 -65 258h-19q-45 -213 -61 -261zM768 1599v228h172v-228h-172z" />
<glyph unicode="&#xc5;" horiz-adv-x="1339" d="M55 0l467 1460h295l467 -1460h-211l-131 428h-541l-135 -428h-211zM438 1741q0 101 64 158t170 57q104 0 167.5 -57.5t63.5 -157.5q0 -102 -62.5 -158.5t-168.5 -56.5q-108 0 -171 56.5t-63 158.5zM446 594h447l-150 477q-35 110 -65 258h-19q-45 -213 -61 -261z M555 1741q0 -117 117 -117t117 117t-117 117t-117 -117z" />
<glyph unicode="&#xc6;" horiz-adv-x="1894" d="M53 0l469 1460h1258v-168h-678v-452h639l-53 -164h-586v-508h678v-168h-875v467h-493l-154 -467h-205zM457 631h448v678h-235z" />
<glyph unicode="&#xc7;" horiz-adv-x="1143" d="M129 543v377q0 278 121 421.5t479 143.5q190 0 338 -35v-158q-238 25 -332 25q-146 0 -228 -22t-131.5 -108t-49.5 -267v-377q0 -182 49.5 -267.5t131.5 -108t228 -22.5q29 0 332 25v-158q-148 -35 -338 -35q-361 0 -480.5 144t-119.5 422zM353 -410l225 277h231 l-264 -277h-192z" />
<glyph unicode="&#xc8;" horiz-adv-x="1145" d="M156 0v1460h876v-168h-680v-452h639l-51 -164h-588v-508h680v-168h-876zM262 1839h234l256 -299h-193z" />
<glyph unicode="&#xc9;" horiz-adv-x="1145" d="M156 0v1460h876v-168h-680v-452h639l-51 -164h-588v-508h680v-168h-876zM525 1540l256 299h231l-294 -299h-193z" />
<glyph unicode="&#xca;" horiz-adv-x="1145" d="M156 0v1460h876v-168h-680v-452h639l-51 -164h-588v-508h680v-168h-876zM205 1540l260 299h252l258 -299h-183l-202 216l-201 -216h-184z" />
<glyph unicode="&#xcb;" horiz-adv-x="1145" d="M156 0v1460h876v-168h-680v-452h639l-51 -164h-588v-508h680v-168h-876zM342 1599v228h172v-228h-172zM715 1599v228h172v-228h-172z" />
<glyph unicode="&#xcc;" horiz-adv-x="526" d="M-60 1839h234l256 -299h-193zM166 0v1460h196v-1460h-196z" />
<glyph unicode="&#xcd;" horiz-adv-x="526" d="M105 1540l256 299h231l-294 -299h-193zM166 0v1460h196v-1460h-196z" />
<glyph unicode="&#xce;" horiz-adv-x="526" d="M-119 1540l260 299h252l258 -299h-183l-202 216l-201 -216h-184zM166 0v1460h196v-1460h-196z" />
<glyph unicode="&#xcf;" horiz-adv-x="526" d="M-10 1599v228h172v-228h-172zM166 0v1460h196v-1460h-196zM363 1599v228h172v-228h-172z" />
<glyph unicode="&#xd0;" horiz-adv-x="1343" d="M57 676v153h101v631h432q358 0 501.5 -118.5t143.5 -436.5v-356q0 -314 -143.5 -431.5t-499.5 -117.5h-434v676h-101zM350 164h240q176 0 268 25.5t138 109.5t46 258v348q0 174 -46 257t-138 108.5t-268 25.5h-240v-467h287v-153h-287v-512z" />
<glyph unicode="&#xd1;" horiz-adv-x="1417" d="M156 0v1460h252l532 -968q105 -192 141 -265h2q-8 103 -8 332v901h187v-1460h-248l-527 958q-92 167 -149 281h-4q8 -256 8 -326v-913h-186zM336 1540v48q0 235 205 235q49 0 98 -17t127 -81q91 -70 133 -70q41 0 59.5 27t18.5 102v33h125v-43q0 -242 -203 -242 q-106 0 -213 88q-68 57 -96.5 69.5t-52.5 12.5q-40 0 -58 -24.5t-18 -102.5v-35h-125z" />
<glyph unicode="&#xd2;" horiz-adv-x="1378" d="M127 541v379q0 291 134 429t429 138q297 0 429 -137t132 -430v-379q0 -294 -132 -431t-429 -137q-295 0 -429 138t-134 430zM326 541q0 -200 73 -299t291 -99t291.5 99t73.5 299v379q0 199 -73.5 298t-291.5 99t-291 -99t-73 -298v-379zM384 1839h234l256 -299h-193z" />
<glyph unicode="&#xd3;" horiz-adv-x="1378" d="M127 541v379q0 291 134 429t429 138q297 0 429 -137t132 -430v-379q0 -294 -132 -431t-429 -137q-295 0 -429 138t-134 430zM326 541q0 -200 73 -299t291 -99t291.5 99t73.5 299v379q0 199 -73.5 298t-291.5 99t-291 -99t-73 -298v-379zM547 1540l256 299h231l-294 -299 h-193z" />
<glyph unicode="&#xd4;" horiz-adv-x="1378" d="M127 541v379q0 291 134 429t429 138q297 0 429 -137t132 -430v-379q0 -294 -132 -431t-429 -137q-295 0 -429 138t-134 430zM307 1540l260 299h252l258 -299h-183l-202 216l-201 -216h-184zM326 541q0 -200 73 -299t291 -99t291.5 99t73.5 299v379q0 199 -73.5 298 t-291.5 99t-291 -99t-73 -298v-379z" />
<glyph unicode="&#xd5;" horiz-adv-x="1378" d="M127 541v379q0 291 134 429t429 138q297 0 429 -137t132 -430v-379q0 -294 -132 -431t-429 -137q-295 0 -429 138t-134 430zM324 1552v48q0 235 205 235q49 0 98 -17t127 -81q91 -70 133 -70q41 0 59.5 27t18.5 102v33h125v-43q0 -242 -203 -242q-106 0 -213 88 q-68 57 -96.5 69.5t-52.5 12.5q-40 0 -58 -24.5t-18 -102.5v-35h-125zM326 541q0 -200 73 -299t291 -99t291.5 99t73.5 299v379q0 199 -73.5 298t-291.5 99t-291 -99t-73 -298v-379z" />
<glyph unicode="&#xd6;" horiz-adv-x="1378" d="M127 541v379q0 291 134 429t429 138q297 0 429 -137t132 -430v-379q0 -294 -132 -431t-429 -137q-295 0 -429 138t-134 430zM326 541q0 -200 73 -299t291 -99t291.5 99t73.5 299v379q0 199 -73.5 298t-291.5 99t-291 -99t-73 -298v-379zM416 1599v228h172v-228h-172z M789 1599v228h172v-228h-172z" />
<glyph unicode="&#xd7;" horiz-adv-x="1298" d="M250 1061l102 102l297 -297l297 297l103 -102l-297 -295l295 -295l-107 -98l-291 291l-295 -297l-102 102l297 297z" />
<glyph unicode="&#xd8;" horiz-adv-x="1378" d="M84 0l127 174q-84 133 -84 367v379q0 291 134 429t429 138q263 0 397 -109l60 82h151l-129 -178q82 -132 82 -362v-379q0 -294 -132 -431t-429 -137q-264 0 -395 107l-59 -80h-152zM326 541q0 -109 18 -183l631 867q-77 92 -285 92q-218 0 -291 -99t-73 -298v-379z M406 233q73 -90 284 -90q218 0 291.5 99t73.5 299v379q0 106 -19 180z" />
<glyph unicode="&#xd9;" horiz-adv-x="1376" d="M150 530v930h194v-907q0 -230 71.5 -318t270.5 -88q201 0 272.5 87.5t71.5 318.5v907h195v-930q0 -291 -125 -424t-414 -133q-286 0 -411 134t-125 423zM352 1839h234l256 -299h-193z" />
<glyph unicode="&#xda;" horiz-adv-x="1376" d="M150 530v930h194v-907q0 -230 71.5 -318t270.5 -88q201 0 272.5 87.5t71.5 318.5v907h195v-930q0 -291 -125 -424t-414 -133q-286 0 -411 134t-125 423zM572 1540l256 299h231l-294 -299h-193z" />
<glyph unicode="&#xdb;" horiz-adv-x="1376" d="M150 530v930h194v-907q0 -230 71.5 -318t270.5 -88q201 0 272.5 87.5t71.5 318.5v907h195v-930q0 -291 -125 -424t-414 -133q-286 0 -411 134t-125 423zM307 1540l260 299h252l258 -299h-183l-202 216l-201 -216h-184z" />
<glyph unicode="&#xdc;" horiz-adv-x="1376" d="M150 530v930h194v-907q0 -230 71.5 -318t270.5 -88q201 0 272.5 87.5t71.5 318.5v907h195v-930q0 -291 -125 -424t-414 -133q-286 0 -411 134t-125 423zM414 1599v228h172v-228h-172zM787 1599v228h172v-228h-172z" />
<glyph unicode="&#xdd;" horiz-adv-x="1260" d="M70 1460h211l256 -508q54 -107 94 -204h2q37 96 81 184l267 528h209l-463 -887v-573h-195v573zM537 1540l256 299h231l-294 -299h-193z" />
<glyph unicode="&#xde;" horiz-adv-x="1245" d="M156 0v1460h192v-215h227q212 0 333 -24.5t188 -105t67 -245.5v-98q0 -148 -58.5 -240t-183 -136t-346.5 -44h-227v-352h-192zM348 506h227q230 0 312 55.5t82 210.5v94q0 120 -56 173t-338 53h-227v-586z" />
<glyph unicode="&#xdf;" horiz-adv-x="1235" d="M162 0v983q0 206 28.5 320.5t130.5 178.5t314 64q242 0 349.5 -83.5t107.5 -284.5v-66q0 -221 -181 -309q217 -68 217 -334v-96q0 -223 -102.5 -310.5t-331.5 -87.5q-14 0 -186 13v147q139 -8 160 -8q164 0 218 51.5t54 198.5v96q0 135 -64 192.5t-231 57.5h-127v145h127 q264 0 264 242v64q0 134 -65.5 177.5t-208.5 43.5q-136 0 -195 -37t-74.5 -117t-15.5 -258v-983h-188z" />
<glyph unicode="&#xe0;" horiz-adv-x="1073" d="M102 242v77q0 133 62.5 195.5t162 83.5t404.5 55v82q0 141 -41.5 184.5t-191.5 43.5q-162 0 -322 -21v123q160 47 346 47q205 0 301.5 -68.5t96.5 -308.5v-735h-170v84q-191 -109 -359 -109q-289 0 -289 267zM210 1513h234l256 -299h-193zM287 250q0 -71 35 -105t124 -34 q136 0 289 82v327q-251 -28 -317 -39.5t-98.5 -46.5t-32.5 -121v-63z" />
<glyph unicode="&#xe1;" horiz-adv-x="1073" d="M102 242v77q0 133 62.5 195.5t162 83.5t404.5 55v82q0 141 -41.5 184.5t-191.5 43.5q-162 0 -322 -21v123q160 47 346 47q205 0 301.5 -68.5t96.5 -308.5v-735h-170v84q-191 -109 -359 -109q-289 0 -289 267zM287 250q0 -71 35 -105t124 -34q136 0 289 82v327 q-251 -28 -317 -39.5t-98.5 -46.5t-32.5 -121v-63zM453 1214l256 299h231l-294 -299h-193z" />
<glyph unicode="&#xe2;" horiz-adv-x="1073" d="M102 242v77q0 133 62.5 195.5t162 83.5t404.5 55v82q0 141 -41.5 184.5t-191.5 43.5q-162 0 -322 -21v123q160 47 346 47q205 0 301.5 -68.5t96.5 -308.5v-735h-170v84q-191 -109 -359 -109q-289 0 -289 267zM162 1214l260 299h252l258 -299h-183l-202 216l-201 -216 h-184zM287 250q0 -71 35 -105t124 -34q136 0 289 82v327q-251 -28 -317 -39.5t-98.5 -46.5t-32.5 -121v-63z" />
<glyph unicode="&#xe3;" horiz-adv-x="1073" d="M102 242v77q0 133 62.5 195.5t162 83.5t404.5 55v82q0 141 -41.5 184.5t-191.5 43.5q-162 0 -322 -21v123q160 47 346 47q205 0 301.5 -68.5t96.5 -308.5v-735h-170v84q-191 -109 -359 -109q-289 0 -289 267zM176 1212v48q0 235 205 235q49 0 98 -17t127 -81 q91 -70 133 -70q41 0 59.5 27t18.5 102v33h125v-43q0 -242 -203 -242q-106 0 -213 88q-68 57 -96.5 69.5t-52.5 12.5q-40 0 -58 -24.5t-18 -102.5v-35h-125zM287 250q0 -71 35 -105t124 -34q136 0 289 82v327q-251 -28 -317 -39.5t-98.5 -46.5t-32.5 -121v-63z" />
<glyph unicode="&#xe4;" horiz-adv-x="1073" d="M102 242v77q0 133 62.5 195.5t162 83.5t404.5 55v82q0 141 -41.5 184.5t-191.5 43.5q-162 0 -322 -21v123q160 47 346 47q205 0 301.5 -68.5t96.5 -308.5v-735h-170v84q-191 -109 -359 -109q-289 0 -289 267zM287 250q0 -71 35 -105t124 -34q136 0 289 82v327 q-251 -28 -317 -39.5t-98.5 -46.5t-32.5 -121v-63zM291 1294v228h172v-228h-172zM664 1294v228h172v-228h-172z" />
<glyph unicode="&#xe5;" horiz-adv-x="1073" d="M102 242v77q0 133 62.5 195.5t162 83.5t404.5 55v82q0 141 -41.5 184.5t-191.5 43.5q-162 0 -322 -21v123q160 47 346 47q205 0 301.5 -68.5t96.5 -308.5v-735h-170v84q-191 -109 -359 -109q-289 0 -289 267zM287 250q0 -71 35 -105t124 -34q136 0 289 82v327 q-251 -28 -317 -39.5t-98.5 -46.5t-32.5 -121v-63zM326 1438q0 101 64 158t170 57q104 0 167.5 -57.5t63.5 -157.5q0 -102 -62.5 -158.5t-168.5 -56.5q-108 0 -171 56.5t-63 158.5zM443 1438q0 -117 117 -117t117 117t-117 117t-117 -117z" />
<glyph unicode="&#xe6;" horiz-adv-x="1675" d="M106 242v77q0 135 62 197.5t159.5 83t405.5 55.5v80q0 141 -41.5 184.5t-191.5 43.5q-153 0 -322 -21v123q164 47 346 47q258 0 326 -108q94 108 313 108q228 0 328 -107.5t100 -361.5v-160h-667v-59q0 -108 16.5 -166t78 -90.5t191.5 -32.5q162 0 346 21v-136 q-212 -45 -356 -45q-276 0 -379 127q-222 -127 -428 -127q-287 0 -287 267zM289 250q0 -70 34.5 -103.5t125.5 -33.5q132 0 286 80v329q-253 -28 -317 -39.5t-96.5 -46.5t-32.5 -123v-63zM924 616h477v46q0 99 -13 158.5t-64.5 97.5t-158.5 38q-116 0 -178.5 -56t-62.5 -236 v-48z" />
<glyph unicode="&#xe7;" horiz-adv-x="907" d="M111 414v262q0 239 98.5 337.5t322.5 98.5q162 0 293 -35v-139q-170 16 -258 16q-99 0 -152.5 -17t-83.5 -80.5t-30 -197.5v-231q0 -131 30 -195t84.5 -83t151.5 -19q110 0 258 21v-140q-109 -37 -293 -37q-230 0 -325.5 102t-95.5 337zM213 -410l225 277h231l-264 -277 h-192z" />
<glyph unicode="&#xe8;" horiz-adv-x="1077" d="M111 422v227q0 232 98 347.5t330 115.5q228 0 328 -107.5t100 -361.5v-160h-668v-59q0 -107 17 -165.5t78.5 -91t191.5 -32.5q142 0 346 23v-135q-212 -46 -357 -46q-231 0 -347.5 93t-116.5 352zM198 1513h234l256 -299h-193zM299 616h479v46q0 98 -13.5 158t-65 98 t-158.5 38q-117 0 -179.5 -56t-62.5 -236v-48z" />
<glyph unicode="&#xe9;" horiz-adv-x="1077" d="M111 422v227q0 232 98 347.5t330 115.5q228 0 328 -107.5t100 -361.5v-160h-668v-59q0 -107 17 -165.5t78.5 -91t191.5 -32.5q142 0 346 23v-135q-212 -46 -357 -46q-231 0 -347.5 93t-116.5 352zM299 616h479v46q0 98 -13.5 158t-65 98t-158.5 38q-117 0 -179.5 -56 t-62.5 -236v-48zM451 1214l256 299h231l-294 -299h-193z" />
<glyph unicode="&#xea;" horiz-adv-x="1077" d="M111 422v227q0 232 98 347.5t330 115.5q228 0 328 -107.5t100 -361.5v-160h-668v-59q0 -107 17 -165.5t78.5 -91t191.5 -32.5q142 0 346 23v-135q-212 -46 -357 -46q-231 0 -347.5 93t-116.5 352zM164 1214l260 299h252l258 -299h-183l-202 216l-201 -216h-184zM299 616 h479v46q0 98 -13.5 158t-65 98t-158.5 38q-117 0 -179.5 -56t-62.5 -236v-48z" />
<glyph unicode="&#xeb;" horiz-adv-x="1077" d="M111 422v227q0 232 98 347.5t330 115.5q228 0 328 -107.5t100 -361.5v-160h-668v-59q0 -107 17 -165.5t78.5 -91t191.5 -32.5q142 0 346 23v-135q-212 -46 -357 -46q-231 0 -347.5 93t-116.5 352zM264 1294v228h172v-228h-172zM299 616h479v46q0 98 -13.5 158t-65 98 t-158.5 38q-117 0 -179.5 -56t-62.5 -236v-48zM637 1294v228h172v-228h-172z" />
<glyph unicode="&#xec;" horiz-adv-x="512" d="M-46 1513h234l256 -299h-193zM162 0v1087h188v-1087h-188z" />
<glyph unicode="&#xed;" horiz-adv-x="512" d="M103 1214l256 299h231l-294 -299h-193zM162 0v1087h188v-1087h-188z" />
<glyph unicode="&#xee;" horiz-adv-x="512" d="M-115 1214l260 299h252l258 -299h-183l-202 216l-201 -216h-184zM162 0v1087h188v-1087h-188z" />
<glyph unicode="&#xef;" horiz-adv-x="512" d="M-16 1294v228h172v-228h-172zM162 0v1087h188v-1087h-188zM357 1294v228h172v-228h-172z" />
<glyph unicode="&#xf0;" horiz-adv-x="1133" d="M111 406v276q0 226 113.5 328t336.5 102q136 0 221 -47q-61 189 -202 266l-261 -176l-65 86l203 135q-115 32 -291 35v129q257 0 430 -63l154 106l67 -86l-108 -74q157 -91 231 -265t74 -472v-280q0 -218 -111 -324.5t-342 -106.5t-340.5 106t-109.5 325zM299 418 q0 -146 57 -216.5t205 -70.5q147 0 203.5 69.5t56.5 217.5v252q0 164 -65.5 225t-194.5 61q-147 0 -204.5 -69.5t-57.5 -216.5v-252z" />
<glyph unicode="&#xf1;" horiz-adv-x="1161" d="M154 0v1087h182v-94q193 119 366 119q163 0 237.5 -80.5t74.5 -275.5v-756h-191v748q0 116 -33 159t-133 43q-136 0 -315 -92v-858h-188zM219 1212v48q0 235 205 235q49 0 98 -17t127 -81q91 -70 133 -70q41 0 59.5 27t18.5 102v33h125v-43q0 -242 -203 -242 q-106 0 -213 88q-68 57 -96.5 69.5t-52.5 12.5q-40 0 -58 -24.5t-18 -102.5v-35h-125z" />
<glyph unicode="&#xf2;" horiz-adv-x="1122" d="M111 406v276q0 226 113.5 328t336.5 102q230 0 340.5 -106t110.5 -324v-276q0 -219 -110.5 -325t-340.5 -106q-231 0 -340.5 106t-109.5 325zM237 1513h234l256 -299h-193zM297 418q0 -146 57.5 -216.5t206.5 -70.5t205.5 70.5t56.5 216.5v252q0 147 -57.5 216.5 t-204.5 69.5t-205.5 -70t-58.5 -216v-252z" />
<glyph unicode="&#xf3;" horiz-adv-x="1122" d="M111 406v276q0 226 113.5 328t336.5 102q230 0 340.5 -106t110.5 -324v-276q0 -219 -110.5 -325t-340.5 -106q-231 0 -340.5 106t-109.5 325zM297 418q0 -146 57.5 -216.5t206.5 -70.5t205.5 70.5t56.5 216.5v252q0 147 -57.5 216.5t-204.5 69.5t-205.5 -70t-58.5 -216 v-252zM471 1214l256 299h231l-294 -299h-193z" />
<glyph unicode="&#xf4;" horiz-adv-x="1122" d="M111 406v276q0 226 113.5 328t336.5 102q230 0 340.5 -106t110.5 -324v-276q0 -219 -110.5 -325t-340.5 -106q-231 0 -340.5 106t-109.5 325zM188 1214l260 299h252l258 -299h-183l-202 216l-201 -216h-184zM297 418q0 -146 57.5 -216.5t206.5 -70.5t205.5 70.5 t56.5 216.5v252q0 147 -57.5 216.5t-204.5 69.5t-205.5 -70t-58.5 -216v-252z" />
<glyph unicode="&#xf5;" horiz-adv-x="1122" d="M111 406v276q0 226 113.5 328t336.5 102q230 0 340.5 -106t110.5 -324v-276q0 -219 -110.5 -325t-340.5 -106q-231 0 -340.5 106t-109.5 325zM192 1212v48q0 235 205 235q49 0 98 -17t127 -81q91 -70 133 -70q41 0 59.5 27t18.5 102v33h125v-43q0 -242 -203 -242 q-106 0 -213 88q-68 57 -96.5 69.5t-52.5 12.5q-40 0 -58 -24.5t-18 -102.5v-35h-125zM297 418q0 -146 57.5 -216.5t206.5 -70.5t205.5 70.5t56.5 216.5v252q0 147 -57.5 216.5t-204.5 69.5t-205.5 -70t-58.5 -216v-252z" />
<glyph unicode="&#xf6;" horiz-adv-x="1122" d="M111 406v276q0 226 113.5 328t336.5 102q230 0 340.5 -106t110.5 -324v-276q0 -219 -110.5 -325t-340.5 -106q-231 0 -340.5 106t-109.5 325zM291 1294v228h172v-228h-172zM297 418q0 -146 57.5 -216.5t206.5 -70.5t205.5 70.5t56.5 216.5v252q0 147 -57.5 216.5 t-204.5 69.5t-205.5 -70t-58.5 -216v-252zM664 1294v228h172v-228h-172z" />
<glyph unicode="&#xf7;" horiz-adv-x="1298" d="M162 690v156h975v-156h-975zM553 223v264h192v-264h-192zM553 1040v265h192v-265h-192z" />
<glyph unicode="&#xf8;" horiz-adv-x="1122" d="M55 -41l125 170q-69 97 -69 277v276q0 226 113.5 328t336.5 102q180 0 291 -68l61 84h142l-119 -161q76 -105 76 -285v-276q0 -219 -110.5 -325t-340.5 -106q-192 0 -299 72l-65 -88h-142zM297 418q0 -63 10 -115l441 600q-58 53 -187 53q-147 0 -205.5 -70t-58.5 -216 v-252zM365 188q58 -57 196 -57q149 0 205.5 70.5t56.5 216.5v252q0 76 -14 125z" />
<glyph unicode="&#xf9;" horiz-adv-x="1161" d="M150 348v739h190v-739q0 -132 36 -171.5t128 -39.5q126 0 315 94v856h191v-1087h-176v96q-208 -121 -377 -121q-160 0 -233.5 77.5t-73.5 295.5zM231 1513h234l256 -299h-193z" />
<glyph unicode="&#xfa;" horiz-adv-x="1161" d="M150 348v739h190v-739q0 -132 36 -171.5t128 -39.5q126 0 315 94v856h191v-1087h-176v96q-208 -121 -377 -121q-160 0 -233.5 77.5t-73.5 295.5zM496 1214l256 299h231l-294 -299h-193z" />
<glyph unicode="&#xfb;" horiz-adv-x="1161" d="M150 348v739h190v-739q0 -132 36 -171.5t128 -39.5q126 0 315 94v856h191v-1087h-176v96q-208 -121 -377 -121q-160 0 -233.5 77.5t-73.5 295.5zM207 1214l260 299h252l258 -299h-183l-202 216l-201 -216h-184z" />
<glyph unicode="&#xfc;" horiz-adv-x="1161" d="M150 348v739h190v-739q0 -132 36 -171.5t128 -39.5q126 0 315 94v856h191v-1087h-176v96q-208 -121 -377 -121q-160 0 -233.5 77.5t-73.5 295.5zM301 1294v228h172v-228h-172zM674 1294v228h172v-228h-172z" />
<glyph unicode="&#xfd;" horiz-adv-x="1126" d="M78 1087h207q205 -585 234.5 -674.5t51.5 -185.5h11q29 122 85 298l179 562h203l-496 -1507h-195l138 416zM459 1214l256 299h231l-294 -299h-193z" />
<glyph unicode="&#xfe;" horiz-adv-x="1116" d="M154 -418v1925l188 29v-508q157 84 320 84q187 0 265.5 -98.5t78.5 -321.5v-274q0 -226 -94.5 -334.5t-352.5 -108.5q-130 0 -217 15v-383zM340 141q117 -12 215 -12q156 0 207 73.5t51 219.5v248q0 166 -39.5 227t-159.5 61q-130 0 -274 -67v-750z" />
<glyph unicode="&#xff;" horiz-adv-x="1126" d="M78 1087h207q205 -585 234.5 -674.5t51.5 -185.5h11q29 122 85 298l179 562h203l-496 -1507h-195l138 416zM305 1294v228h172v-228h-172zM678 1294v228h172v-228h-172z" />
<glyph unicode="&#x152;" horiz-adv-x="2025" d="M127 541v379q0 291 134 429t429 138q237 0 369 -88v61h876v-168h-680v-452h639l-51 -164h-588v-508h680v-168h-876v61q-132 -88 -369 -88q-295 0 -429 138t-134 430zM326 541q0 -200 73 -299t291 -99q219 0 294 99t75 299v379q0 135 -32.5 221.5t-107 131t-229.5 44.5 q-218 0 -291 -99t-73 -298v-379z" />
<glyph unicode="&#x153;" horiz-adv-x="1790" d="M111 406v276q0 226 113.5 328t336.5 102q267 0 357 -162q90 162 333 162q228 0 328 -107.5t100 -361.5v-160h-667v-59q0 -108 16.5 -166t78 -90.5t191.5 -32.5q162 0 347 21v-136q-213 -45 -357 -45q-288 0 -379 152q-99 -152 -348 -152q-231 0 -340.5 106t-109.5 325z M297 418q0 -146 57.5 -216.5t206.5 -70.5t205.5 70.5t56.5 216.5v252q0 147 -57.5 216.5t-204.5 69.5t-205.5 -70t-58.5 -216v-252zM1012 616h477v46q0 99 -13 158.5t-64.5 97.5t-158.5 38q-116 0 -178.5 -56t-62.5 -236v-48z" />
<glyph unicode="&#x178;" horiz-adv-x="1260" d="M70 1460h211l256 -508q54 -107 94 -204h2q37 96 81 184l267 528h209l-463 -887v-573h-195v573zM358 1599v228h172v-228h-172zM731 1599v228h172v-228h-172z" />
<glyph unicode="&#x2c6;" horiz-adv-x="831" d="M31 1214l260 299h252l258 -299h-183l-202 216l-201 -216h-184z" />
<glyph unicode="&#x2dc;" horiz-adv-x="831" d="M51 1212v48q0 235 205 235q49 0 98 -17t127 -81q91 -70 133 -70q41 0 59.5 27t18.5 102v33h125v-43q0 -242 -203 -242q-106 0 -213 88q-68 57 -96.5 69.5t-52.5 12.5q-40 0 -58 -24.5t-18 -102.5v-35h-125z" />
<glyph unicode="&#x2013;" horiz-adv-x="997" d="M102 498v157h793v-157h-793z" />
<glyph unicode="&#x2014;" horiz-adv-x="1430" d="M102 498v157h1225v-157h-1225z" />
<glyph unicode="&#x2018;" horiz-adv-x="451" d="M129 1049v266q0 116 53.5 164t141.5 61v-80q-64 -11 -79.5 -42.5t-15.5 -94.5h95v-274h-195z" />
<glyph unicode="&#x2019;" horiz-adv-x="451" d="M129 1036v80q62 13 78 45t16 94h-94v275h195v-268q0 -115 -53 -163.5t-142 -62.5z" />
<glyph unicode="&#x201a;" horiz-adv-x="449" d="M129 -4v276h195v-268q0 -114 -53 -163t-142 -62v80q62 12 78 44t16 93h-94z" />
<glyph unicode="&#x201c;" horiz-adv-x="786" d="M129 1049v266q0 116 53.5 164t141.5 61v-80q-64 -11 -79.5 -42.5t-15.5 -94.5h95v-274h-195zM465 1049v266q0 116 53.5 164t140.5 61v-80q-63 -11 -78.5 -42.5t-15.5 -94.5h94v-274h-194z" />
<glyph unicode="&#x201d;" horiz-adv-x="786" d="M129 1036v80q62 13 78 45t16 94h-94v275h195v-268q0 -115 -53 -163.5t-142 -62.5zM465 1036v80q62 13 78 45t16 94h-94v275h194v-268q0 -115 -52.5 -163.5t-141.5 -62.5z" />
<glyph unicode="&#x201e;" horiz-adv-x="786" d="M129 0v274h195v-268q0 -114 -53 -163t-142 -62v80q62 12 78 44.5t16 94.5h-94zM465 0v274h194v-268q0 -114 -52.5 -163t-141.5 -62v80q62 12 78 44.5t16 94.5h-94z" />
<glyph unicode="&#x2022;" horiz-adv-x="965" d="M166 725q0 130 92.5 222.5t222.5 92.5q132 0 225 -92.5t93 -222.5t-93 -222.5t-225 -92.5q-130 0 -222.5 92.5t-92.5 222.5z" />
<glyph unicode="&#x2026;" horiz-adv-x="1444" d="M129 0v274h193v-274h-193zM627 0v274h196v-274h-196zM1122 0v274h197v-274h-197z" />
<glyph unicode="&#x2039;" horiz-adv-x="711" d="M113 547l276 409h209l-274 -409l274 -410h-209z" />
<glyph unicode="&#x203a;" horiz-adv-x="711" d="M113 137l272 410l-272 409h209l276 -409l-276 -410h-209z" />
<glyph unicode="&#x20ac;" horiz-adv-x="1192" d="M84 506v121h127v200h-127v123h127q2 229 74 346t183.5 153t274.5 36q180 0 326 -37v-154q-223 25 -326 25q-114 0 -181 -21.5t-108.5 -101.5t-43.5 -246h612l-27 -123h-585v-200h534l-26 -121h-508q3 -165 44 -243.5t111.5 -100t198.5 -21.5q83 0 305 25v-154 q-147 -37 -305 -37q-175 0 -289.5 34.5t-187.5 150t-76 346.5h-127z" />
<glyph unicode="&#x2122;" horiz-adv-x="1677" d="M78 1356v106h612v-106h-233v-664h-146v664h-233zM784 692v770h158q209 -344 225 -375h4l226 375h157v-770h-143v434q0 53 6 154h-6q-11 -32 -178 -301h-125q-162 256 -180 301h-4q4 -100 4 -154v-434h-144z" />
<glyph unicode="&#xe000;" horiz-adv-x="1085" d="M0 1085h1085v-1085h-1085v1085z" />
<glyph unicode="&#xfb01;" horiz-adv-x="1255" d="M53 932v151h195v131q0 205 70.5 267.5t207.5 62.5q95 0 195 -24v-121q-80 4 -160 4q-81 0 -102 -39.5t-21 -149.5v-131h656v-1083h-193v932h-463v-932h-190v932h-195zM899 1294v228h197v-228h-197z" />
<glyph unicode="&#xfb02;" horiz-adv-x="1253" d="M68 932v151h192v131q0 213 95.5 268.5t267.5 55.5h469v-1538h-193v1401h-274q-86 0 -121 -16t-43 -51t-8 -122v-129h280l-26 -151h-254v-932h-193v932h-192z" />
<glyph unicode="&#xfb03;" horiz-adv-x="2052" d="M53 936v151h195v127q0 202 70.5 266t209.5 64q99 0 211 -26v-121q-64 6 -176 6q-82 0 -103.5 -40t-21.5 -149v-127h301l-41 -151h-260v-936h-190v936h-195zM823 936v151h195v127q0 202 70.5 266t209.5 64q99 0 211 -26v-121q-64 6 -176 6q-82 0 -103.5 -40t-21.5 -149 v-127h301l-41 -151h-260v-936h-190v936h-195zM1700 1294v228h192v-228h-192zM1702 0v1087h188v-1087h-188z" />
<glyph unicode="&#xfb04;" horiz-adv-x="2050" d="M53 936v151h195v127q0 202 70.5 266t209.5 64q99 0 211 -26v-121q-64 6 -176 6q-82 0 -103.5 -40t-21.5 -149v-127h301l-41 -151h-260v-936h-190v936h-195zM823 936v151h195v127q0 202 70.5 266t209.5 64q99 0 211 -26v-121q-64 6 -176 6q-82 0 -103.5 -40t-21.5 -149 v-127h301l-41 -151h-260v-936h-190v936h-195zM1700 0v1507l188 31v-1538h-188z" />
</font>
</defs>
</svg>
